# Blender 4.0.2
# www.blender.org
mtllib cube_3_heart_3_raw.mtl
o geometry_0
v -0.500000 -0.500000 -0.500000
v -0.500000 -0.500000 0.500000
v -0.500000 0.500000 -0.500000
v -0.500000 0.500000 0.500000
v 0.500000 -0.500000 -0.500000
v 0.500000 -0.500000 0.500000
v 0.500000 0.500000 -0.500000
v 0.500000 0.500000 0.500000
v -0.500000 0.500000 -0.500000
v -0.500000 0.500000 0.500000
v -0.500000 1.500000 -0.500000
v -0.500000 1.500000 0.500000
v 0.500000 0.500000 -0.500000
v 0.500000 0.500000 0.500000
v 0.500000 1.500000 -0.500000
v 0.500000 1.500000 0.500000
v 0.500000 -0.500000 -0.500000
v 0.500000 -0.500000 0.500000
v 0.500000 0.500000 -0.500000
v 0.500000 0.500000 0.500000
v 1.500000 -0.500000 -0.500000
v 1.500000 -0.500000 0.500000
v 1.500000 0.500000 -0.500000
v 1.500000 0.500000 0.500000
v 0.500000 0.500000 -0.500000
v 0.500000 0.500000 0.500000
v 0.500000 1.500000 -0.500000
v 0.500000 1.500000 0.500000
v 1.500000 0.500000 -0.500000
v 1.500000 0.500000 0.500000
v 1.500000 1.500000 -0.500000
v 1.500000 1.500000 0.500000
v 1.500000 0.500000 -0.500000
v 1.500000 0.500000 0.500000
v 1.500000 1.500000 -0.500000
v 1.500000 1.500000 0.500000
v 2.500000 0.500000 -0.500000
v 2.500000 0.500000 0.500000
v 2.500000 1.500000 -0.500000
v 2.500000 1.500000 0.500000
vn -1.0000 -0.0000 -0.0000
vn -0.0000 -1.0000 -0.0000
vn -0.0000 -0.0000 -1.0000
vn -0.0000 -0.0000 1.0000
vn -0.0000 1.0000 -0.0000
vn 1.0000 -0.0000 -0.0000
s 0
f 2//1 4//1 1//1
f 5//2 2//2 1//2
f 1//1 4//1 3//1
f 3//3 5//3 1//3
f 2//4 8//4 4//4
f 6//2 2//2 5//2
f 6//4 8//4 2//4
f 7//3 5//3 3//3
f 10//1 12//1 9//1
f 9//1 12//1 11//1
f 11//3 13//3 9//3
f 10//4 16//4 12//4
f 14//4 16//4 10//4
f 12//5 16//5 11//5
f 15//3 13//3 11//3
f 11//5 16//5 15//5
f 21//2 18//2 17//2
f 19//3 21//3 17//3
f 18//4 24//4 20//4
f 22//2 18//2 21//2
f 22//4 24//4 18//4
f 23//3 21//3 19//3
f 23//6 22//6 21//6
f 24//6 22//6 23//6
f 27//3 29//3 25//3
f 26//4 32//4 28//4
f 30//4 32//4 26//4
f 28//5 32//5 27//5
f 31//3 29//3 27//3
f 27//5 32//5 31//5
f 37//2 34//2 33//2
f 35//3 37//3 33//3
f 34//4 40//4 36//4
f 38//2 34//2 37//2
f 38//4 40//4 34//4
f 36//5 40//5 35//5
f 39//3 37//3 35//3
f 35//5 40//5 39//5
f 39//6 38//6 37//6
f 40//6 38//6 39//6
o geometry_1
v -0.500000 -0.500000 0.700000
v -0.500000 -0.500000 1.700000
v -0.500000 0.500000 0.700000
v -0.500000 0.500000 1.700000
v 0.500000 -0.500000 0.700000
v 0.500000 -0.500000 1.700000
v 0.500000 0.500000 0.700000
v 0.500000 0.500000 1.700000
v 1.500000 -0.500000 0.700000
v 1.500000 -0.500000 1.700000
v 2.500000 -0.500000 0.700000
v 2.500000 -0.500000 1.700000
v 2.500000 0.500000 1.700000
v 1.500000 0.500000 0.700000
v 1.500000 0.500000 1.700000
v 2.500000 0.500000 0.700000
v 2.500000 1.500000 0.700000
v 2.500000 1.500000 1.700000
v 1.500000 1.500000 0.700000
v 1.500000 1.500000 1.700000
v 1.500000 2.500000 0.700000
v 1.500000 2.500000 1.700000
v 2.500000 2.500000 0.700000
v 2.500000 2.500000 1.700000
vn -1.0000 -0.0000 -0.0000
vn -0.0000 -1.0000 -0.0000
vn -0.0000 -0.0000 -1.0000
vn -0.0000 -0.0000 1.0000
vn -0.0000 1.0000 -0.0000
vn 1.0000 -0.0000 -0.0000
s 0
f 42//7 44//7 41//7
f 45//8 42//8 41//8
f 41//7 44//7 43//7
f 43//9 45//9 41//9
f 42//10 48//10 44//10
f 46//8 42//8 45//8
f 46//10 48//10 42//10
f 44//11 48//11 43//11
f 47//9 45//9 43//9
f 43//11 48//11 47//11
f 49//8 46//8 45//8
f 47//9 49//9 45//9
f 46//10 55//10 48//10
f 50//8 46//8 49//8
f 50//10 55//10 46//10
f 48//11 55//11 47//11
f 54//9 49//9 47//9
f 47//11 55//11 54//11
f 51//8 50//8 49//8
f 54//9 51//9 49//9
f 50//10 53//10 55//10
f 52//8 50//8 51//8
f 52//10 53//10 50//10
f 56//9 51//9 54//9
f 56//12 52//12 51//12
f 53//12 52//12 56//12
f 55//7 60//7 54//7
f 54//7 60//7 59//7
f 59//9 56//9 54//9
f 55//10 58//10 60//10
f 53//10 58//10 55//10
f 57//9 56//9 59//9
f 57//12 53//12 56//12
f 58//12 53//12 57//12
f 60//7 62//7 59//7
f 59//7 62//7 61//7
f 61//9 57//9 59//9
f 60//10 64//10 62//10
f 58//10 64//10 60//10
f 62//11 64//11 61//11
f 63//9 57//9 61//9
f 61//11 64//11 63//11
f 63//12 58//12 57//12
f 64//12 58//12 63//12
o geometry_2
v -0.500000 -0.500000 1.900000
v -0.500000 -0.500000 2.900000
v -0.500000 0.500000 1.900000
v -0.500000 0.500000 2.900000
v -0.500000 1.500000 1.900000
v -0.500000 1.500000 2.900000
v 0.500000 -0.500000 1.900000
v 0.500000 -0.500000 2.900000
v 0.500000 0.500000 1.900000
v 0.500000 0.500000 2.900000
v 1.500000 -0.500000 1.900000
v 1.500000 -0.500000 2.900000
v 1.500000 0.500000 1.900000
v 1.500000 0.500000 2.900000
v 0.500000 1.500000 1.900000
v 0.500000 1.500000 2.900000
v 1.500000 1.500000 1.900000
v 1.500000 1.500000 2.900000
vn -1.0000 -0.0000 -0.0000
vn -0.0000 -1.0000 -0.0000
vn -0.0000 -0.0000 -1.0000
vn -0.0000 -0.0000 1.0000
vn -0.0000 1.0000 -0.0000
vn 1.0000 -0.0000 -0.0000
s 0
f 66//13 68//13 65//13
f 71//14 66//14 65//14
f 65//13 68//13 67//13
f 67//15 71//15 65//15
f 66//16 74//16 68//16
f 72//14 66//14 71//14
f 72//16 74//16 66//16
f 73//15 71//15 67//15
f 68//13 70//13 67//13
f 67//13 70//13 69//13
f 69//15 73//15 67//15
f 68//16 80//16 70//16
f 74//16 80//16 68//16
f 70//17 80//17 69//17
f 79//15 73//15 69//15
f 69//17 80//17 79//17
f 75//14 72//14 71//14
f 73//15 75//15 71//15
f 72//16 78//16 74//16
f 76//14 72//14 75//14
f 76//16 78//16 72//16
f 77//15 75//15 73//15
f 77//18 76//18 75//18
f 78//18 76//18 77//18
f 79//15 77//15 73//15
f 74//16 82//16 80//16
f 78//16 82//16 74//16
f 80//17 82//17 79//17
f 81//15 77//15 79//15
f 79//17 82//17 81//17
f 81//18 78//18 77//18
f 82//18 78//18 81//18
o geometry_3
v -0.500000 1.500000 3.100000
v -0.500000 1.500000 4.100000
v -0.500000 2.500000 3.100000
v -0.500000 2.500000 4.100000
v 0.500000 2.500000 4.100000
v 0.500000 0.500000 3.100000
v 0.500000 0.500000 4.100000
v 0.500000 1.500000 4.100000
v 0.500000 1.500000 3.100000
v 0.500000 2.500000 3.100000
v 1.500000 2.500000 3.100000
v 1.500000 2.500000 4.100000
v 1.500000 -0.500000 3.100000
v 1.500000 -0.500000 4.100000
v 1.500000 0.500000 3.100000
v 2.500000 -0.500000 3.100000
v 2.500000 -0.500000 4.100000
v 2.500000 0.500000 4.100000
v 1.500000 0.500000 4.100000
v 1.500000 1.500000 3.100000
v 1.500000 1.500000 4.100000
v 2.500000 0.500000 3.100000
v 2.500000 1.500000 3.100000
v 2.500000 1.500000 4.100000
vn -1.0000 -0.0000 -0.0000
vn -0.0000 -1.0000 -0.0000
vn -0.0000 -0.0000 -1.0000
vn -0.0000 -0.0000 1.0000
vn -0.0000 1.0000 -0.0000
vn 1.0000 -0.0000 -0.0000
s 0
f 84//19 86//19 83//19
f 91//20 84//20 83//20
f 83//19 86//19 85//19
f 85//21 91//21 83//21
f 84//22 87//22 86//22
f 90//20 84//20 91//20
f 90//22 87//22 84//22
f 86//23 87//23 85//23
f 92//21 91//21 85//21
f 85//23 87//23 92//23
f 89//19 90//19 88//19
f 97//20 89//20 88//20
f 88//19 90//19 91//19
f 91//21 97//21 88//21
f 89//22 103//22 90//22
f 101//20 89//20 97//20
f 101//22 103//22 89//22
f 102//21 97//21 91//21
f 92//21 102//21 91//21
f 90//22 94//22 87//22
f 103//22 94//22 90//22
f 87//23 94//23 92//23
f 93//21 102//21 92//21
f 92//23 94//23 93//23
f 93//24 103//24 102//24
f 94//24 103//24 93//24
f 96//19 101//19 95//19
f 98//20 96//20 95//20
f 95//19 101//19 97//19
f 97//21 98//21 95//21
f 96//22 100//22 101//22
f 99//20 96//20 98//20
f 99//22 100//22 96//22
f 104//21 98//21 97//21
f 104//24 99//24 98//24
f 100//24 99//24 104//24
f 102//21 104//21 97//21
f 101//22 106//22 103//22
f 100//22 106//22 101//22
f 103//23 106//23 102//23
f 105//21 104//21 102//21
f 102//23 106//23 105//23
f 105//24 100//24 104//24
f 106//24 100//24 105//24
o geometry_4
v -0.500000 0.500000 4.300000
v -0.500000 0.500000 5.300000
v -0.500000 1.500000 4.300000
v -0.500000 1.500000 5.300000
v 0.500000 1.500000 4.300000
v 0.500000 1.500000 5.300000
v 0.500000 -0.500000 4.300000
v 0.500000 -0.500000 5.300000
v 1.500000 -0.500000 4.300000
v 1.500000 -0.500000 5.300000
v 0.500000 0.500000 4.300000
v 0.500000 0.500000 5.300000
v 1.500000 0.500000 4.300000
v 1.500000 0.500000 5.300000
v 1.500000 1.500000 4.300000
v 1.500000 1.500000 5.300000
v 0.500000 2.500000 4.300000
v 0.500000 2.500000 5.300000
v 1.500000 2.500000 4.300000
v 1.500000 2.500000 5.300000
vn -1.0000 -0.0000 -0.0000
vn -0.0000 -1.0000 -0.0000
vn -0.0000 -0.0000 -1.0000
vn -0.0000 -0.0000 1.0000
vn -0.0000 1.0000 -0.0000
vn 1.0000 -0.0000 -0.0000
s 0
f 108//25 110//25 107//25
f 117//26 108//26 107//26
f 107//25 110//25 109//25
f 109//27 117//27 107//27
f 108//28 112//28 110//28
f 118//26 108//26 117//26
f 118//28 112//28 108//28
f 110//29 112//29 109//29
f 111//27 117//27 109//27
f 109//29 112//29 111//29
f 114//25 118//25 113//25
f 115//26 114//26 113//26
f 113//25 118//25 117//25
f 117//27 115//27 113//27
f 114//28 120//28 118//28
f 116//26 114//26 115//26
f 116//28 120//28 114//28
f 119//27 115//27 117//27
f 119//30 116//30 115//30
f 120//30 116//30 119//30
f 111//27 119//27 117//27
f 118//28 122//28 112//28
f 120//28 122//28 118//28
f 121//27 119//27 111//27
f 121//30 120//30 119//30
f 122//30 120//30 121//30
f 112//25 124//25 111//25
f 111//25 124//25 123//25
f 123//27 121//27 111//27
f 112//28 126//28 124//28
f 122//28 126//28 112//28
f 124//29 126//29 123//29
f 125//27 121//27 123//27
f 123//29 126//29 125//29
f 125//30 122//30 121//30
f 126//30 122//30 125//30
o geometry_5
v -0.500000 0.500000 5.500000
v -0.500000 0.500000 6.500000
v -0.500000 1.500000 5.500000
v -0.500000 1.500000 6.500000
v 0.500000 -0.500000 5.500000
v 0.500000 -0.500000 6.500000
v 0.500000 0.500000 5.500000
v 1.500000 -0.500000 6.500000
v 1.500000 0.500000 5.500000
v 0.500000 0.500000 6.500000
v 0.500000 1.500000 5.500000
v 0.500000 1.500000 6.500000
v 1.500000 0.500000 6.500000
v 1.500000 1.500000 5.500000
v 1.500000 1.500000 6.500000
v 1.500000 -0.500000 5.500000
v 2.500000 -0.500000 5.500000
v 2.500000 -0.500000 6.500000
v 2.500000 0.500000 5.500000
v 2.500000 0.500000 6.500000
vn -1.0000 -0.0000 -0.0000
vn -0.0000 -1.0000 -0.0000
vn -0.0000 -0.0000 -1.0000
vn -0.0000 -0.0000 1.0000
vn -0.0000 1.0000 -0.0000
vn 1.0000 -0.0000 -0.0000
s 0
f 128//31 130//31 127//31
f 133//32 128//32 127//32
f 127//31 130//31 129//31
f 129//33 133//33 127//33
f 128//34 138//34 130//34
f 136//32 128//32 133//32
f 136//34 138//34 128//34
f 130//35 138//35 129//35
f 137//33 133//33 129//33
f 129//35 138//35 137//35
f 132//31 136//31 131//31
f 142//32 132//32 131//32
f 131//31 136//31 133//31
f 133//33 142//33 131//33
f 132//34 139//34 136//34
f 134//32 132//32 142//32
f 134//34 139//34 132//34
f 135//33 142//33 133//33
f 137//33 135//33 133//33
f 136//34 141//34 138//34
f 139//34 141//34 136//34
f 138//35 141//35 137//35
f 140//33 135//33 137//33
f 137//35 141//35 140//35
f 140//36 139//36 135//36
f 141//36 139//36 140//36
f 143//32 134//32 142//32
f 135//33 143//33 142//33
f 134//34 146//34 139//34
f 144//32 134//32 143//32
f 144//34 146//34 134//34
f 139//35 146//35 135//35
f 145//33 143//33 135//33
f 135//35 146//35 145//35
f 145//36 144//36 143//36
f 146//36 144//36 145//36
